HIERARCHY
ROOT Hips
{
	OFFSET 39.223202 -4.191096 98.790901
	CHANNELS 6 Xposition Yposition Zposition Xrotation Yrotation Zrotation
	JOINT spine
	{
		OFFSET 0.000000 -0.477353 8.301033
		CHANNELS 3 Xrotation Yrotation Zrotation
		JOINT spine1
		{
			OFFSET 0.000000 -0.000001 10.456497
			CHANNELS 3 Xrotation Yrotation Zrotation
			JOINT spine2
			{
				OFFSET 0.000000 -0.000002 10.019203
				CHANNELS 3 Xrotation Yrotation Zrotation
				JOINT Neck
				{
					OFFSET 0.000000 -1.226414 25.723503
					CHANNELS 3 Xrotation Yrotation Zrotation
					JOINT Head
					{
						OFFSET 0.000000 -0.000001 7.771744
						CHANNELS 3 Xrotation Yrotation Zrotation
						End Site
						{
							OFFSET 0.000000 6.203937 18.811996
						}
					}
				}
				JOINT RightShoulder
				{
					OFFSET -4.218800 0.587438 10.820000
					CHANNELS 3 Xrotation Yrotation Zrotation
					JOINT RightArm
					{
						OFFSET 0.000000 -0.000002 14.191406
						CHANNELS 3 Xrotation Yrotation Zrotation
						JOINT RightArmRoll
						{
							OFFSET 0.000000 -0.000001 7.164078
							CHANNELS 3 Xrotation Yrotation Zrotation
							JOINT RightForeArm
							{
								OFFSET 0.000000 -0.000003 20.866501
								CHANNELS 3 Xrotation Yrotation Zrotation
								JOINT RightForeArmRoll
								{
									OFFSET 0.000000 -0.000001 8.039215
									CHANNELS 3 Xrotation Yrotation Zrotation
									JOINT RightHand
									{
										OFFSET 0.000000 -0.000003 16.132996
										CHANNELS 3 Xrotation Yrotation Zrotation
										End Site
										{
											OFFSET 0.000000 0.000000 0.100006
										}
									}
								}
							}
						}
					}
				}
				JOINT LeftShoulder
				{
					OFFSET 4.218800 0.587438 10.820000
					CHANNELS 3 Xrotation Yrotation Zrotation
					JOINT LeftArm
					{
						OFFSET 0.000000 -0.000002 14.191406
						CHANNELS 3 Xrotation Yrotation Zrotation
						JOINT LeftArmRoll
						{
							OFFSET 0.000000 -0.000001 7.164078
							CHANNELS 3 Xrotation Yrotation Zrotation
							JOINT LeftForeArm
							{
								OFFSET 0.000000 -0.000003 20.866501
								CHANNELS 3 Xrotation Yrotation Zrotation
								JOINT LeftForeArmRoll
								{
									OFFSET 0.000000 -0.000001 8.039215
									CHANNELS 3 Xrotation Yrotation Zrotation
									JOINT LeftHand
									{
										OFFSET 0.000000 -0.000003 16.132996
										CHANNELS 3 Xrotation Yrotation Zrotation
										End Site
										{
											OFFSET 0.000000 0.000000 0.100006
										}
									}
								}
							}
						}
					}
				}
			}
		}
	}
	JOINT RightUpLeg
	{
		OFFSET -7.357731 1.131810 -1.349213
		CHANNELS 3 Xrotation Yrotation Zrotation
		JOINT RightUpLegRoll
		{
			OFFSET 0.000000 -0.000003 18.916801
			CHANNELS 3 Xrotation Yrotation Zrotation
			JOINT RightLeg
			{
				OFFSET 0.000000 0.000004 -23.425598
				CHANNELS 3 Xrotation Yrotation Zrotation
				JOINT RightLegRoll
				{
					OFFSET 0.000000 -0.000004 23.502304
					CHANNELS 3 Xrotation Yrotation Zrotation
					JOINT RightFoot
					{
						OFFSET 0.000000 -0.000003 19.561707
						CHANNELS 3 Xrotation Yrotation Zrotation
						JOINT RightToeBase
						{
							OFFSET 0.000000 -0.000003 16.352600
							CHANNELS 3 Xrotation Yrotation Zrotation
							End Site
							{
								OFFSET 0.006931 0.912836 7.919434
							}
						}
					}
				}
			}
		}
	}
	JOINT LeftUpLeg
	{
		OFFSET 7.357731 1.131810 -1.349213
		CHANNELS 3 Xrotation Yrotation Zrotation
		JOINT LeftUpLegRoll
		{
			OFFSET 0.000000 -0.000003 18.916901
			CHANNELS 3 Xrotation Yrotation Zrotation
			JOINT LeftLeg
			{
				OFFSET 0.000000 -0.000004 23.425499
				CHANNELS 3 Xrotation Yrotation Zrotation
				JOINT LeftLegRoll
				{
					OFFSET 0.000000 -0.000004 23.719498
					CHANNELS 3 Xrotation Yrotation Zrotation
					JOINT LeftFoot
					{
						OFFSET 0.000000 -0.000003 19.344406
						CHANNELS 3 Xrotation Yrotation Zrotation
						JOINT LeftToeBase
						{
							OFFSET 0.000000 -0.000003 16.352600
							CHANNELS 3 Xrotation Yrotation Zrotation
							End Site
							{
								OFFSET -0.031063 0.912835 7.919434
							}
						}
					}
				}
			}
		}
	}
}
MOTION
Frames: 10
Frame Time: 0.041667
39.111801 -4.137538 98.821892 -1.476424 -1.143241 1.729246 -2.459320 0.026352 0.123557 -0.911494 0.044739 0.246209 0.733573 0.047598 0.245565 34.621047 1.943641 -1.580678 -15.730901 -2.420503 -1.351550 -13.765428 -26.611389 -14.877407 -124.876513 -194.202577 -81.970562 0.000003 -0.000002 0.000003 73.006676 11.129383 6.988361 -0.000005 -0.000001 -3.004919 -5.000163 -8.000089 -0.000007 -10.846378 33.309016 11.165273 -130.405933 185.224663 80.606949 0.000001 -0.000002 0.000002 61.978940 -6.257974 -2.122765 0.000002 -0.000005 3.009644 -5.000228 7.998741 -0.000155 0.083451 -175.608999 1.216699 -179.999991 0.000005 -1.043006 174.699601 -3.970002 -0.598010 -0.000003 -0.000000 0.055309 68.991591 6.874738 2.193158 25.456856 -7.355621 -0.000003 0.354795 176.136071 1.056572 -0.000005 -0.000004 -1.118640 -8.133355 3.595267 0.892527 -0.000003 -0.000004 -0.094919 68.175110 -6.923136 -2.109312 25.456957 7.355613 -0.000001 
39.112301 -4.132727 98.821594 -1.482130 -1.139939 1.732207 -2.456802 0.027294 0.123497 -0.905918 0.046065 0.246280 0.739150 0.048916 0.245636 34.594891 1.894284 -1.562804 -15.727380 -2.385599 -1.340132 -13.775262 -26.609927 -14.891223 -124.812363 -194.271098 -82.104345 0.000002 -0.000003 0.000003 73.246266 11.036156 6.986659 -0.000003 0.000001 -3.004921 -5.000166 -8.000084 -0.000001 -10.823102 33.325261 11.133826 -130.339120 185.338495 80.559219 -0.000002 -0.000001 0.000002 62.202417 -6.212276 -2.160060 0.000002 -0.000006 3.009637 -5.000233 7.998739 -0.000154 0.093033 -175.613999 1.216004 -179.999991 0.000005 -1.043006 174.708562 -3.971065 -0.598493 -0.000003 -0.000000 0.055252 68.986208 6.874712 2.193189 25.456853 -7.355621 -0.000002 0.346108 176.130074 1.052931 -0.000005 -0.000005 -1.118700 -8.153737 3.594252 0.893967 -0.000004 -0.000004 -0.094981 68.179215 -6.923128 -2.109252 25.456959 7.355615 -0.000001 
39.109402 -4.130054 98.825096 -1.487365 -1.136747 1.735196 -2.454490 0.028260 0.123409 -0.900781 0.047482 0.246288 0.744288 0.050327 0.245639 34.569575 1.845463 -1.545072 -15.723483 -2.351594 -1.328754 -13.784702 -26.608909 -14.904642 -124.749020 -194.329988 -82.235956 0.000004 0.000002 0.000004 73.476935 10.945434 6.984610 -0.000003 -0.000002 -3.004920 -5.000164 -8.000086 -0.000001 -10.800031 33.342870 11.102790 -130.273988 185.446056 80.516367 -0.000001 -0.000002 0.000002 62.421522 -6.166936 -2.196289 -0.000001 -0.000006 3.009631 -5.000229 7.998743 -0.000156 0.102098 -175.618999 1.215288 -179.999991 0.000005 -1.043006 174.717441 -3.973108 -0.599058 -0.000002 -0.000000 0.055196 68.981031 6.874700 2.193109 25.456854 -7.355621 -0.000002 0.337359 176.125075 1.049463 -0.000005 -0.000005 -1.118770 -8.173449 3.593255 0.895344 -0.000004 -0.000004 -0.095041 68.183210 -6.923108 -2.109299 25.456957 7.355613 -0.000000 
39.110100 -4.128836 98.825989 -1.492051 -1.133716 1.738102 -2.452393 0.029240 0.123289 -0.896136 0.048985 0.246220 0.748932 0.051824 0.245568 34.545307 1.797801 -1.527709 -15.718810 -2.319010 -1.317560 -13.793420 -26.608441 -14.917094 -124.687139 -194.379384 -82.365135 0.000005 -0.000003 0.000002 73.697277 10.858186 6.981853 -0.000003 -0.000004 -3.004921 -5.000166 -8.000084 -0.000002 -10.777312 33.361748 11.072396 -130.210685 185.546651 80.478534 -0.000003 0.000001 0.000002 62.635294 -6.122220 -2.230972 0.000001 -0.000005 3.009623 -5.000231 7.998741 -0.000157 0.110439 -175.623001 1.214548 -179.999991 0.000005 -1.043006 174.726061 -3.974156 -0.598553 -0.000003 -0.000000 0.055139 68.976059 6.874663 2.193209 25.456858 -7.355620 -0.000002 0.328648 176.119051 1.046166 -0.000005 -0.000004 -1.118850 -8.192256 3.592312 0.896635 -0.000003 -0.000004 -0.095101 68.187076 -6.923046 -2.109343 25.456953 7.355614 -0.000001 
39.108299 -4.125306 98.822403 -1.496160 -1.130885 1.740794 -2.450518 0.030223 0.123131 -0.892035 0.050571 0.246069 0.753033 0.053403 0.245410 34.522324 1.751915 -1.510933 -15.713151 -2.288364 -1.306694 -13.801160 -26.609155 -14.928130 -124.627088 -194.419354 -82.491589 0.000005 -0.000003 0.000003 73.906007 10.775280 6.978397 -0.000002 -0.000002 -3.004917 -5.000167 -8.000086 -0.000007 -10.755138 33.381856 11.042906 -130.149323 185.639679 80.446897 0.000003 -0.000004 0.000000 62.842644 -6.078266 -2.264192 0.000003 -0.000006 3.009618 -5.000229 7.998742 -0.000157 0.117855 -175.628015 1.213784 -179.999991 0.000005 -1.043006 174.734202 -3.975201 -0.599077 -0.000003 -0.000000 0.055083 68.971312 6.874675 2.193207 25.456858 -7.355620 -0.000003 0.320087 176.114051 1.043078 -0.000005 -0.000004 -1.118920 -8.209945 3.591471 0.897823 -0.000003 -0.000004 -0.095163 68.190560 -6.923059 -2.109230 25.456953 7.355613 -0.000001 
39.105400 -4.126289 98.821091 -1.499630 -1.128304 1.743154 -2.448911 0.031200 0.122929 -0.888527 0.052233 0.245828 0.756541 0.055060 0.245159 34.500604 1.708434 -1.494963 -15.706534 -2.260151 -1.296313 -13.807386 -26.611296 -14.937115 -124.569304 -194.450035 -82.614218 0.000004 -0.000000 0.000003 74.101795 10.697462 6.974206 -0.000005 -0.000001 -3.004919 -5.000164 -8.000086 -0.000002 -10.733683 33.403190 11.014556 -130.090337 185.724482 80.421564 0.000001 -0.000000 0.000001 63.042687 -6.035322 -2.295334 0.000001 -0.000006 3.009608 -5.000230 7.998741 -0.000157 0.124135 -175.632003 1.213004 -179.999991 0.000005 -1.043006 174.741606 -3.976255 -0.598656 -0.000003 -0.000000 0.055027 68.967091 6.874642 2.193264 25.456861 -7.355620 -0.000002 0.311773 176.110048 1.040220 -0.000005 -0.000004 -1.118990 -8.226260 3.590738 0.898880 -0.000003 -0.000004 -0.095227 68.193797 -6.923020 -2.109219 25.456957 7.355614 0.000000 
39.103298 -4.122725 98.821190 -1.502429 -1.126033 1.745048 -2.447571 0.032161 0.122680 -0.885668 0.053968 0.245484 0.759399 0.056790 0.244803 34.480564 1.667975 -1.480022 -15.698546 -2.234879 -1.286551 -13.811814 -26.615278 -14.943559 -124.514171 -194.471414 -82.733631 0.000003 -0.000003 0.000003 74.283211 10.625695 6.969111 -0.000001 0.000000 -3.004917 -5.000165 -8.000086 -0.000002 -10.713122 33.425648 10.987607 -130.033742 185.800434 80.403676 -0.000001 -0.000001 0.000002 63.234445 -5.993564 -2.324294 0.000001 -0.000004 3.009609 -5.000231 7.998741 -0.000157 0.129079 -175.635009 1.212214 -179.999991 0.000005 -1.043006 174.748081 -3.977289 -0.598298 -0.000003 -0.000000 0.054970 68.963396 6.874641 2.193193 25.456856 -7.355621 -0.000003 0.303821 176.105049 1.037583 -0.000005 -0.000004 -1.119070 -8.240995 3.590170 0.899788 -0.000004 -0.000004 -0.095297 68.196638 -6.922984 -2.109131 25.456955 7.355613 -0.000000 
39.107101 -4.117678 98.821198 -1.504487 -1.124093 1.746368 -2.446533 0.033095 0.122377 -0.883510 0.055770 0.245031 0.761559 0.058588 0.244335 34.462126 1.631169 -1.466324 -15.689008 -2.213059 -1.277555 -13.813937 -26.621560 -14.946872 -124.462098 -194.483653 -82.847722 0.000004 -0.000003 0.000003 74.448891 10.560881 6.963091 -0.000001 0.000000 -3.004919 -5.000164 -8.000089 -0.000003 -10.693617 33.449089 10.962279 -129.979784 185.866892 80.391388 0.000000 -0.000000 0.000002 63.416722 -5.953250 -2.350769 0.000002 -0.000002 3.009602 -5.000228 7.998742 -0.000156 0.132474 -175.639011 1.211393 -179.999991 0.000005 -1.043006 174.753409 -3.978316 -0.599017 -0.000003 -0.000000 0.054914 68.960233 6.874634 2.193189 25.456856 -7.355621 -0.000002 0.296329 176.102057 1.035206 -0.000005 -0.000005 -1.119150 -8.253908 3.589776 0.900519 -0.000004 -0.000004 -0.095372 68.198933 -6.922944 -2.109080 25.456955 7.355614 -0.000001 
39.104900 -4.115747 98.816795 -1.505568 -1.122433 1.747551 -2.445862 0.034055 0.122041 -0.882232 0.057759 0.244502 0.762836 0.060574 0.243787 34.446533 1.595669 -1.453443 -15.679387 -2.193366 -1.269209 -13.814615 -26.628864 -14.948270 -124.412183 -194.484541 -82.960270 0.000004 -0.000003 0.000003 74.602762 10.500695 6.955206 -0.000004 0.000002 -3.004920 -5.000166 -8.000082 0.000000 -10.674652 33.472988 10.937798 -129.927478 185.924880 80.387051 -0.000002 -0.000001 -0.000000 63.593077 -5.913150 -2.374963 0.000001 -0.000003 3.009602 -5.000231 7.998741 -0.000158 0.134375 -175.642016 1.210540 -179.999991 0.000005 -1.043006 174.757999 -3.979338 -0.598789 -0.000003 -0.000000 0.054858 68.957481 6.874618 2.193255 25.456854 -7.355620 -0.000003 0.288718 176.098041 1.033094 -0.000005 -0.000004 -1.119230 -8.265459 3.589512 0.901101 -0.000003 -0.000004 -0.095451 68.200832 -6.922944 -2.108862 25.456955 7.355615 0.000000 
39.094700 -4.111617 98.815392 -1.505540 -1.120923 1.749071 -2.445623 0.035093 0.121693 -0.881911 0.060027 0.243932 0.763158 0.062841 0.243193 34.434136 1.559051 -1.440796 -15.670573 -2.174269 -1.261249 -13.815132 -26.635789 -14.949399 -124.363360 -194.472274 -83.071704 0.000004 -0.000000 0.000001 74.749399 10.442386 6.944713 -0.000003 -0.000001 -3.004920 -5.000164 -8.000083 -0.000005 -10.655662 33.497181 10.913364 -129.875528 185.975847 80.390650 -0.000000 -0.000003 0.000001 63.767056 -5.872101 -2.397690 0.000001 -0.000003 3.009591 -5.000230 7.998741 -0.000152 0.135052 -175.645008 1.209615 -179.999991 0.000005 -1.043006 174.762384 -3.980359 -0.597578 -0.000003 -0.000000 0.054802 68.955151 6.874590 2.193196 25.456854 -7.355621 -0.000003 0.280434 176.095036 1.031262 -0.000005 -0.000005 -1.119320 -8.276238 3.589276 0.901573 -0.000004 -0.000004 -0.095529 68.202512 -6.922928 -2.108654 25.456952 7.355613 -0.000000 
